<?xml version="1.0" encoding="UTF-8"?> <svg xmlns="http://www.w3.org/2000/svg" width="120" height="120"><g fill="none" fill-rule="evenodd"><circle fill="#FFEEE5" fill-rule="nonzero" cx="60" cy="60" r="60"></circle><path d="M77.034 43.19c9.345 9.344 9.345 24.498 0 33.846-9.345 9.342-24.499 9.342-33.846 0-9.346-9.348-9.346-24.502 0-33.847 9.347-9.345 24.5-9.345 33.846 0z" stroke="#FFBF9E" stroke-width="2.813" fill="#FFBF9E" stroke-linecap="round" stroke-linejoin="round"></path><path d="M77.034 43.19L66.88 53.34M53.343 66.88L43.19 77.034M77.034 77.034L66.88 66.88M53.343 53.341L43.19 43.19" stroke="#FF6D23" stroke-width="2.813" stroke-linecap="round" stroke-linejoin="round"></path><path d="M66.88 53.341c3.738 3.738 3.738 9.8 0 13.538-3.739 3.741-9.8 3.741-13.536 0a9.57 9.57 0 0 1 0-13.538c3.735-3.738 9.797-3.738 13.535 0z" fill="#FFEEE5"></path></g></svg> 