<?xml version="1.0" encoding="UTF-8"?> <svg xmlns="http://www.w3.org/2000/svg" width="120" height="120"><g fill="none" fill-rule="evenodd"><circle fill="#E6FFE8" fill-rule="nonzero" cx="60" cy="60" r="60"></circle><path d="M72.896 47.35h-4.043v-7.992a3.012 3.012 0 0 0-3.005-3.013h-8.72a3.012 3.012 0 0 0-3.003 3.013v7.992H50.08v-7.992c0-3.898 3.162-7.069 7.048-7.069h8.72c3.885 0 7.047 3.171 7.047 7.069v7.992z" fill="#0E9532"></path><path d="M83.739 87.691H37.043a4.905 4.905 0 0 1-4.899-4.912V47.405a4.905 4.905 0 0 1 4.899-4.912h46.696c2.705 0 4.898 2.199 4.898 4.912V82.78a4.905 4.905 0 0 1-4.898 4.912z" fill="#0E9532"></path><path d="M83.739 42.493H37.043a4.905 4.905 0 0 0-4.899 4.912v10.69c0 5.446 4.403 9.862 9.834 9.862h36.825c5.431 0 9.834-4.416 9.834-9.863V47.405a4.905 4.905 0 0 0-4.898-4.912z" fill="#88D09B"></path><path d="M62.79 64.62h-4.799a2.686 2.686 0 0 1-2.681-2.69c0-1.486 1.2-2.69 2.681-2.69h4.8a2.686 2.686 0 0 1 2.68 2.69c0 1.485-1.2 2.69-2.68 2.69z" fill="#0E9532"></path></g></svg> 